<?xml version="1.0" encoding="UTF-8"?>
<!DOCTYPE svg PUBLIC "-//W3C//DTD SVG 1.1//EN" "http://www.w3.org/Graphics/SVG/1.1/DTD/svg11.dtd">
<svg xmlns="http://www.w3.org/2000/svg" aria-labelledby="title desc" role="img" version="1.1" viewBox="0, 0, 100, 100">
  <title>Logo</title>
  <desc>logo image</desc>
  <style>
    path {
         fill: #325082;
    }
  </style>
  <path d="M 83.4455,33.086003 C 86.26475,38.270752 87.35225,44.159751 87.5,50 87.5,70.710497 70.7105,87.499994 50,87.499994 39.1775,87.505994 30.06425,83.036745 22.5275,75.499996 l 12.117,0 0.2385,-0.024 0.23925,0.024 c 2.3685,0 4.293,-1.9245 4.293,-4.292999 l 0,-17.839498 21.1695,0 0,17.839498 c 0,2.368499 1.9245,4.292999 4.293,4.292999 2.36925,0 4.29375,-1.9245 4.29375,-4.292999 l 0,-38.120994 14.274,0 z" />
  <path d="m 50,12.500006 c 10.8225,-0.006 19.93575,4.463249 27.4725,11.999998 l -12.0975,0 -0.249,0.02475 -0.24825,-0.02475 c -2.3685,0 -4.293,1.9245 -4.293,4.292999 l 0,16.728748 -21.1695,0 0,-16.728748 c 0,-2.368499 -1.9245,-4.292999 -4.293,-4.292999 -2.36925,0 -4.29375,1.9245 -4.29375,4.292999 l 0,38.120244 -14.27475,0 C 13.73525,61.729248 12.64775,55.840249 12.5,50 12.5,29.289503 29.2895,12.500006 50,12.500006 Z" />
</svg>
