<?xml version="1.0" encoding="UTF-8"?>
<!DOCTYPE svg PUBLIC "-//W3C//DTD SVG 1.1//EN" "http://www.w3.org/Graphics/SVG/1.1/DTD/svg11.dtd">
<svg xmlns="http://www.w3.org/2000/svg" aria-labelledby="title desc" role="img" version="1.1" viewBox="0, 0, 100, 100">
  <title>Logo</title>
  <desc>logo image</desc>
  <style>
    path {
         fill: #ffffff;
    }
  </style>
  <path d="m 72.297,38.724004 c 1.8795,3.4565 2.6045,7.382499 2.703,11.275998 C 75,63.807 63.807,74.999994 50,74.999994 42.785,75.003994 36.7095,72.024499 31.685,67 l 8.078,0 0.159,-0.016 0.1595,0.016 c 1.579,0 2.862,-1.283 2.862,-2.862 l 0,-11.892998 14.113,0 0,11.892998 c 0,1.579 1.283,2.862 2.862,2.862 1.5795,0 2.8625,-1.283 2.8625,-2.862 l 0,-25.413996 9.516,0 z" />
  <path d="m 50,25.000006 c 7.215,-0.004 13.2905,2.9755 18.315,7.999999 l -8.065,0 -0.166,0.0165 -0.1655,-0.0165 c -1.579,0 -2.862,1.283 -2.862,2.862 l 0,11.152498 -14.113,0 0,-11.152498 c 0,-1.579 -1.283,-2.862 -2.862,-2.862 -1.5795,0 -2.8625,1.283 -2.8625,2.862 l 0,25.413495 -9.5165,0 C 25.8235,57.819501 25.0985,53.893502 25,50.000002 25,36.193004 36.193,25.000006 50,25.000006 Z" />
</svg>
