<?xml version="1.0" encoding="UTF-8"?>
<!DOCTYPE svg PUBLIC "-//W3C//DTD SVG 1.1//EN" "http://www.w3.org/Graphics/SVG/1.1/DTD/svg11.dtd">
<svg xmlns="http://www.w3.org/2000/svg" aria-labelledby="title desc" role="img" version="1.1" viewBox="0, 0, 100, 100">
  <title>Logo</title>
  <desc>logo image</desc>
  <style>
    path {
         fill: #ffffff;
    }
  </style>
  <path d="m 64.864518,42.482743 c 1.252987,2.304311 1.736316,4.921618 1.801982,7.517258 0,9.204574 -7.461925,16.666496 -16.6665,16.666496 -4.809952,0.0027 -8.860245,-1.983644 -12.209878,-5.333277 l 5.38528,0 0.105999,-0.01067 0.106332,0.01067 c 1.052656,0 1.907981,-0.855324 1.907981,-1.907981 l 0,-7.928586 9.408572,0 0,7.928586 c 0,1.052657 0.855325,1.907981 1.907981,1.907981 1.05299,0 1.908314,-0.855324 1.908314,-1.907981 l 0,-16.942496 6.343937,0 z" />
  <path d="m 50,33.333502 c 4.809952,-0.0027 8.860245,1.983647 12.209878,5.33328 l -5.376613,0 -0.110666,0.011 -0.110332,-0.011 c -1.052656,0 -1.907981,0.855325 -1.907981,1.907981 l 0,7.434925 -9.408572,0 0,-7.434925 c 0,-1.052656 -0.855325,-1.907981 -1.907981,-1.907981 -1.05299,0 -1.908314,0.855325 -1.908314,1.907981 l 0,16.942162 -6.34427,0 C 33.882495,55.212948 33.399166,52.595642 33.3335,50.000001 33.3335,40.795427 40.795425,33.333502 50,33.333502 Z" />
</svg>
