<?xml version="1.0" encoding="UTF-8"?>
<!DOCTYPE svg PUBLIC "-//W3C//DTD SVG 1.1//EN" "http://www.w3.org/Graphics/SVG/1.1/DTD/svg11.dtd">
<svg xmlns="http://www.w3.org/2000/svg" aria-labelledby="title desc" role="img" version="1.1" viewBox="0, 0, 16, 16">
  <title>Email Icon</title>
  <desc>Email icon image</desc>
  <path style="fill: #FFFFFF" d="m 0.250931,3.2950314 c 16.799479,9.4648436 8.39974,4.732422 0,0 z m 0,0 V 5.838 c 0.248,0.2766667 0.536568,0.5272865 0.8652349,0.7519531 1.8906661,1.2800003 3.3259741,2.2750413 4.3066401,2.9843753 0.328667,0.242 0.596115,0.4304056 0.800782,0.5664056 0.204666,0.135333 0.476406,0.274682 0.816406,0.416016 0.34,0.141333 0.657172,0.210937 0.951172,0.210937 h 0.0098 0.0078 c 0.294,0 0.611172,-0.0696 0.951172,-0.210937 0.34,-0.141334 0.611739,-0.280683 0.816406,-0.416016 0.204667,-0.136 0.472114,-0.3244056 0.800781,-0.5664056 0.778667,-0.570667 2.211495,-1.565709 4.298828,-2.9843753 C 15.20462,6.3712865 15.495667,6.1206668 15.749,5.838 V 3.4844845 c 0,0.3633333 -0.157943,0.7576406 -0.474609,1.1816405 -0.317334,0.4240001 -0.654386,0.758 -1.011719,1 -0.196,0.138 -0.787437,0.5471355 -1.773438,1.2304684 -0.985999,0.683334 -1.740958,1.210745 -2.265624,1.580079 -0.058,0.04 -0.181808,0.126385 -0.369141,0.261718 -0.187333,0.136 -0.342797,0.246745 -0.466797,0.330078 -0.124,0.084 -0.273219,0.177917 -0.449219,0.28125 -0.175333,0.104 -0.342047,0.182375 -0.498047,0.234375 -0.155333,0.052 -0.298974,0.07813 -0.43164,0.07813 h -0.0078 -0.0098 c -0.132667,0 -0.276308,-0.02612 -0.431641,-0.07813 -0.156,-0.052 -0.322714,-0.130375 -0.498047,-0.234375 -0.176,-0.103333 -0.325219,-0.19725 -0.449219,-0.28125 -0.124,-0.08333 -0.279463,-0.194078 -0.466797,-0.330078 C 5.958129,8.6030574 5.834322,8.5166724 5.776322,8.4766724 5.246322,8.1073384 3.897447,7.1707914 1.7294469,5.666125 1.3081139,5.3721251 0.9567589,5.0170053 0.674759,4.601672 0.392093,4.1863386 0.250931,3.7503647 0.250931,3.2950314 Z m 15.498047,0.1894531 c 6.467448,9.3385415 3.233724,4.6692709 0,0 z" />
  <path d="M0.251,5.838 L0.251,12.705 Q0.251,13.276 0.657,13.682 Q1.064,14.089 1.635,14.089 L14.365,14.089 Q14.936,14.089 15.343,13.682 Q15.749,13.276 15.749,12.705 L15.749,5.838 Q15.369,6.262 14.876,6.59 Q11.745,8.718 10.577,9.574 Q10.084,9.937 9.777,10.141 Q9.47,10.344 8.96,10.556 Q8.45,10.768 8.009,10.768 L8,10.768 L7.991,10.768 Q7.55,10.768 7.04,10.556 Q6.53,10.344 6.223,10.141 Q5.916,9.937 5.423,9.574 Q3.952,8.51 1.116,6.59 Q0.623,6.253 0.251,5.838 z M0.251,3.295 Q0.251,3.978 0.675,4.601 Q1.098,5.224 1.73,5.665 Q4.982,7.922 5.777,8.476 Q5.864,8.536 6.145,8.739 Q6.426,8.943 6.612,9.068 Q6.798,9.194 7.062,9.349 Q7.325,9.505 7.559,9.583 Q7.792,9.661 7.991,9.661 L8,9.661 L8.009,9.661 Q8.208,9.661 8.441,9.583 Q8.675,9.505 8.938,9.349 Q9.202,9.194 9.388,9.068 Q9.574,8.943 9.855,8.739 Q10.136,8.536 10.223,8.476 Q11.01,7.922 12.489,6.897 Q13.968,5.872 14.262,5.665 Q14.798,5.302 15.274,4.666 Q15.749,4.03 15.749,3.485 Q15.749,2.811 15.39,2.361 Q15.031,1.911 14.365,1.911 L1.635,1.911 Q1.072,1.911 0.662,2.318 Q0.251,2.724 0.251,3.295 z" />
</svg>
