<?xml version="1.0" encoding="UTF-8"?>
<!DOCTYPE svg PUBLIC "-//W3C//DTD SVG 1.1//EN" "http://www.w3.org/Graphics/SVG/1.1/DTD/svg11.dtd">
<svg xmlns="http://www.w3.org/2000/svg" aria-labelledby="title desc" role="img" version="1.1" viewBox="0 0 16 16">
  <title>GitHub Logo</title>
  <desc>GitHub logo image</desc>
  <path style="fill: #FFFFFF" d="m 3.924569,3.4986209 c -0.08688,0.00398 -0.128906,0.017578 -0.128906,0.017578 -0.435,1.1019999 -0.159172,1.9151874 -0.07617,2.1171875 -0.513,0.56 -0.822265,1.2754375 -0.822265,2.1484375 0,3.0650001 1.865578,3.7511721 3.642578,3.9511721 -0.229,0.2 -0.43386,0.553312 -0.50586,1.070313 -0.457,0.205 -1.616078,0.558937 -2.330078,-0.664063 0,0 -0.421609,-0.768219 -1.224609,-0.824219 0,0 -0.781641,-0.0097 -0.05664,0.486328 0,0 0.526625,0.245922 0.890625,1.169922 0,0 0.46736,1.555266 2.69336,1.072266 0.003,0.667 0.01172,1.171328 0.01172,1.361328 0,0.04611 -0.01054,0.09299 -0.02539,0.138672 0.655283,0.169197 1.32996,0.256485 2.007812,0.259766 0.677682,-0.002 1.352356,-0.08798 2.007813,-0.25586 -0.01559,-0.04719 -0.02539,-0.09665 -0.02539,-0.144531 0,-0.262 0.0098,-1.125314 0.0098,-2.195313 0,-0.745 -0.255969,-1.234468 -0.5429686,-1.480468 1.783,-0.197 3.654297,-0.872313 3.654297,-3.9453131 0,-0.873 -0.311219,-1.5884375 -0.824219,-2.1484375 0.083,-0.2020001 0.356922,-1.0151876 -0.08008,-2.1171875 0,0 -0.670266,-0.2146875 -2.197266,0.8203125 -0.639,-0.178 -1.323905,-0.2655312 -2.003906,-0.2695312 -0.68,0.004 -1.363953,0.091531 -2.001953,0.2695312 -1.146,-0.77625 -1.811641,-0.8498437 -2.072266,-0.8378906 z" />
  <path d="M8 0C3.58 0 0 3.582 0 8c0 3.535 2.292 6.533 5.47 7.59.4.075.547-.172.547-.385 0-.19-.007-.693-.01-1.36-2.226.483-2.695-1.073-2.695-1.073-.364-.924-.89-1.17-.89-1.17-.725-.496.056-.486.056-.486.803.056 1.225.824 1.225.824.714 1.223 1.873.87 2.33.665.072-.517.278-.87.507-1.07-1.777-.2-3.644-.888-3.644-3.953 0-.873.31-1.587.823-2.147-.083-.202-.358-1.015.077-2.117 0 0 .672-.215 2.2.82.638-.178 1.323-.266 2.003-.27.68.004 1.364.092 2.003.27 1.527-1.035 2.198-.82 2.198-.82.437 1.102.163 1.915.08 2.117.513.56.823 1.274.823 2.147 0 3.073-1.87 3.75-3.653 3.947.287.246.543.735.543 1.48 0 1.07-.01 1.933-.01 2.195 0 .215.144.463.55.385C13.71 14.53 16 11.534 16 8c0-4.418-3.582-8-8-8"/>
</svg>
