<?xml version="1.0" encoding="UTF-8"?>
<!DOCTYPE svg PUBLIC "-//W3C//DTD SVG 1.1//EN" "http://www.w3.org/Graphics/SVG/1.1/DTD/svg11.dtd">
<svg xmlns="http://www.w3.org/2000/svg" aria-labelledby="title desc" role="img" version="1.1" viewBox="0, 0, 16, 16">
  <title>Home Icon</title>
  <desc>Home icon image</desc>
  <path d="M 8.0000225,4.203845 2.2936969,8.908106 c 0,0.0066 -0.00167,0.01641 -0.00501,0.02972 -0.00327,0.01321 -0.00501,0.0228 -0.00501,0.02962 v 4.763561 c 0,0.171993 0.062881,0.321045 0.1886084,0.446563 0.1256926,0.125589 0.2745354,0.188783 0.4465632,0.188783 h 3.810752 V 10.555392 H 9.270461 v 3.8111 h 3.810718 c 0.171993,0 0.321044,-0.06306 0.446563,-0.188922 0.125727,-0.125379 0.188817,-0.274535 0.188817,-0.446563 V 8.967446 c 0,-0.02642 -0.0036,-0.04637 -0.01001,-0.05934 z" />
  <path d="M 15.889631,7.836243 13.716359,6.030038 V 1.980935 c 0,-0.09257 -0.02975,-0.16869 -0.08947,-0.228269 -0.05923,-0.05951 -0.135356,-0.08926 -0.228131,-0.08926 h -1.905411 c -0.09267,0 -0.16876,0.02975 -0.228374,0.08926 -0.05947,0.05958 -0.08919,0.135738 -0.08919,0.228269 V 3.916136 L 8.7543231,1.891532 C 8.5428425,1.719505 8.2913878,1.633508 8.000237,1.633508 c -0.291116,0 -0.5425359,0.086 -0.7542251,0.258024 L 0.11028067,7.836243 c -0.06614851,0.05284 -0.10240331,0.123955 -0.10914678,0.213288 -0.0067087,0.08926 0.01640678,0.167231 0.06941596,0.233345 l 0.61528889,0.734412 c 0.0530092,0.05951 0.12239038,0.0959 0.20842168,0.109216 0.0794269,0.0067 0.15885378,-0.01655 0.23828068,-0.06945 L 8.0000285,3.330602 14.867586,9.057019 c 0.05304,0.04616 0.12239,0.06921 0.208421,0.06921 h 0.02982 c 0.08589,-0.01307 0.155134,-0.04971 0.208421,-0.109078 l 0.615359,-0.734307 c 0.0529,-0.06625 0.07609,-0.144081 0.06921,-0.233449 -0.0068,-0.08909 -0.04317,-0.160209 -0.109182,-0.213149 z" />
</svg>
