<?xml version="1.0" encoding="UTF-8"?>
<!DOCTYPE svg PUBLIC "-//W3C//DTD SVG 1.1//EN" "http://www.w3.org/Graphics/SVG/1.1/DTD/svg11.dtd">
<svg xmlns="http://www.w3.org/2000/svg" aria-labelledby="title desc" role="img" version="1.1" viewBox="0, 0, 100, 100">
  <title>Logo</title>
  <desc>logo image</desc>
  <style>
    path {
         fill: #325082;
    }
  </style>
  <path d="M94.594,27.448 C98.353,34.361 99.803,42.213 100,50 C100,77.614 77.614,100 50,100 C35.57,100.008 23.419,94.049 13.37,84 L29.526,84 L29.844,83.968 L30.163,84 C33.321,84 35.887,81.434 35.887,78.276 L35.887,54.49 L64.113,54.49 L64.113,78.276 C64.113,81.434 66.679,84 69.837,84 C72.996,84 75.562,81.434 75.562,78.276 L75.562,27.448 L94.594,27.448 z" />
  <path d="M50,0 C64.43,-0.008 76.581,5.951 86.63,16 L70.5,16 L70.168,16.033 L69.837,16 C66.679,16 64.113,18.566 64.113,21.724 L64.113,44.029 L35.887,44.029 L35.887,21.724 C35.887,18.566 33.321,16 30.163,16 C27.004,16 24.438,18.566 24.438,21.724 L24.438,72.551 L5.405,72.551 C1.647,65.639 0.197,57.787 0,50 C0,22.386 22.386,0 50,0 z" />
</svg>
