<?xml version="1.0" encoding="UTF-8"?>
<!DOCTYPE svg PUBLIC "-//W3C//DTD SVG 1.1//EN" "http://www.w3.org/Graphics/SVG/1.1/DTD/svg11.dtd">
<svg xmlns="http://www.w3.org/2000/svg" aria-labelledby="title desc" role="img" version="1.1" viewBox="0, 0, 16, 16">
  <title>Phone Icon</title>
  <desc>Phone icon image</desc>
  <path d="m 15.992374,12.627057 c 0.0339,0.259914 -0.04525,0.485902 -0.237134,0.677965 l -2.252765,2.237201 c -0.101628,0.112994 -0.234282,0.209122 -0.398017,0.288135 -0.163735,0.07912 -0.324619,0.129971 -0.482652,0.152542 -0.01129,0 -0.04525,0.0029 -0.101739,0.0086 C 12.463687,15.9971 12.390291,16 12.299955,16 12.08535,16 11.738092,15.96328 11.258179,15.889803 10.778267,15.816289 10.191108,15.635471 9.4967017,15.347391 8.8021296,15.059256 8.0145364,14.626998 7.1337838,14.050783 6.2530311,13.474596 5.3157628,12.683582 4.3220619,11.677906 3.531618,10.898246 2.8766788,10.152485 2.3572443,9.4406493 1.8378097,8.7287584 1.4200037,8.0705675 1.1038261,7.4660487 0.78762087,6.86153 0.55048771,6.3135084 0.39239893,5.8219838 0.23431015,5.3304592 0.12703562,4.9067312 0.07057535,4.5507996 0.01411507,4.194868 -0.00846904,3.9152074 0.00282301,3.711818 0.01411507,3.5084285 0.0197611,3.3954343 0.0197611,3.3728355 0.04234521,3.2146437 0.09315946,3.053627 0.17220385,2.8897855 0.25124825,2.725944 0.34723071,2.5931758 0.46015126,2.4914811 L 2.7129163,0.23724772 C 2.8710051,0.07905591 3.051678,-4e-5 3.254935,-4e-5 c 0.1467967,0 0.2766554,0.0423728 0.3895759,0.12711842 0.1129206,0.0847456 0.208903,0.18926521 0.2879474,0.31355878 l 1.8123749,3.440672 c 0.1016285,0.1807906 0.1298587,0.3785304 0.08469,0.5932193 -0.045168,0.2146889 -0.1411507,0.3954796 -0.2879475,0.542372 l -0.829966,0.830507 c -0.022584,0.022599 -0.042345,0.059322 -0.059283,0.1101693 -0.016938,0.050847 -0.025407,0.09322 -0.025407,0.1271184 0.045168,0.2372877 0.1467968,0.5084737 0.3048855,0.8135579 0.1355047,0.271186 0.3444077,0.6016939 0.6267091,0.9915237 0.2823014,0.3898299 0.6831694,0.8389539 1.2026039,1.3474276 0.5081425,0.5198285 0.9598248,0.9237276 1.3550467,1.2119176 0.3951389,0.288024 0.7255422,0.499972 0.9909056,0.635565 0.2653633,0.135593 0.4686203,0.217513 0.6097433,0.245679 l 0.2116707,0.0424 c 0.022584,0 0.059366,-0.0085 0.1101255,-0.02542 0.05081,-0.01698 0.08751,-0.03672 0.110125,-0.05935 l 0.965443,-0.983049 c 0.203368,-0.180763 0.44039,-0.271158 0.711427,-0.271158 0.19202,0 0.34438,0.03387 0.457301,0.101694 h 0.01691 l 3.269023,1.9322 c 0.237216,0.147003 0.378339,0.333388 0.423535,0.559377 z" />
</svg>
