<?xml version="1.0" encoding="UTF-8"?>
<!DOCTYPE svg PUBLIC "-//W3C//DTD SVG 1.1//EN" "http://www.w3.org/Graphics/SVG/1.1/DTD/svg11.dtd">
<svg xmlns="http://www.w3.org/2000/svg" aria-labelledby="title desc" role="img" version="1.1" viewBox="0, 0, 16, 16">
  <title>Resume Icon</title>
  <desc>Resume icon image</desc>
  <path d="M13.537,0 C14.067,0 14.5,0.516 14.5,1.153 L14.5,14.847 C14.5,15.484 14.067,16 13.537,16 L2.459,16 C1.929,16 1.5,15.484 1.5,14.847 L1.5,1.153 C1.5,0.516 1.929,0 2.459,0 L13.537,0 z M12.133,12.318 L3.867,12.318 L3.867,13.108 L12.133,13.108 L12.133,12.318 z M12.133,10.688 L3.867,10.688 L3.867,11.477 L12.133,11.477 L12.133,10.688 z M12.133,9.057 L3.867,9.057 L3.867,9.847 L12.133,9.847 L12.133,9.057 z M9.105,5.413 L6.968,5.413 C6.258,5.418 5.633,6.699 5.635,7.484 L10.438,7.484 C10.441,6.699 9.815,5.418 9.105,5.413 z M8.037,2.891 C7.476,2.894 7.025,3.389 7.027,4 C7.025,4.615 7.476,5.111 8.037,5.109 C8.598,5.111 9.049,4.615 9.046,4 C9.049,3.389 8.598,2.894 8.037,2.891 z" />
</svg>
