<?xml version="1.0" encoding="UTF-8"?>
<!DOCTYPE svg PUBLIC "-//W3C//DTD SVG 1.1//EN" "http://www.w3.org/Graphics/SVG/1.1/DTD/svg11.dtd">
<svg xmlns="http://www.w3.org/2000/svg" aria-labelledby="title desc" role="img" version="1.1" viewBox="0, 0, 16, 16">
  <title>Webpage Icon</title>
  <desc>Webpage icon image</desc>
  <path d="M 8.0000012,-1.4648438e-6 C 3.5817033,-1.4648438e-6 0,3.5817018 0,7.9999997 c 0,4.4182653 3.5817033,8.0000013 8.0000012,8.0000013 4.4182978,0 8.0000008,-3.581736 8.0000008,-8.0000013 0,-4.4182979 -3.581703,-8.0000011648438 -8.0000008,-8.0000011648438 z m 0,14.5717504648438 c -3.6237603,0 -6.5717497,-2.947989 -6.5717497,-6.5717493 0,-3.6236629 2.9479894,-6.5717496 6.5717497,-6.5717496 3.6237608,0 6.5717498,2.9479893 6.5717498,6.5717496 0,3.6237603 -2.947989,6.5717493 -6.5717498,6.5717493 z" />
  <path d="M 4.606077,6.0726818 H 2.9601355 C 2.7974932,6.4965651 2.6863911,6.9454878 2.6355654,7.4125973 H 4.4704877 C 4.4914675,6.9542564 4.5372593,6.505691 4.606077,6.0726818 Z" />
  <path d="M 3.587679,4.8978445 H 4.8607902 C 5.0010887,4.3965047 5.175455,3.9286807 5.3831747,3.5082075 5.437378,3.3984369 5.494017,3.2942848 5.5516628,3.1926658 4.7666084,3.5942377 4.0925261,4.1819974 3.587679,4.8978445 Z" />
  <path d="m 11.393925,9.9273501 h 1.645942 c 0.162675,-0.4238833 0.273777,-0.8728059 0.324505,-1.3399154 h -1.834825 c -0.02098,0.4583083 -0.0668,0.9068738 -0.135622,1.3399154 z" />
  <path d="m 11.529547,7.4125973 h 1.834922 C 13.313741,6.9454878 13.202607,6.4965651 13.039964,6.0726818 H 11.39399 c 0.06875,0.4330092 0.114577,0.8815746 0.135557,1.3399155 z" />
  <path d="m 10.61686,12.491727 c -0.05424,0.109803 -0.110875,0.213955 -0.168488,0.315574 0.785152,-0.401442 1.459169,-0.989202 1.964016,-1.705081 H 11.13931 c -0.140364,0.501145 -0.314763,0.969066 -0.52245,1.389507 z" />
  <path d="m 11.139115,4.8978445 h 1.273111 C 11.907379,4.181965 11.233329,3.5942053 10.44821,3.1927633 c 0.05765,0.1016189 0.114349,0.2057386 0.168488,0.3155091 0.207849,0.4204408 0.382248,0.8883622 0.522417,1.3895721 z" />
  <path d="M 4.8608552,11.10222 H 3.587679 c 0.5048471,0.715879 1.1788644,1.303639 1.9640163,1.705081 C 5.4940495,12.705682 5.437378,12.60153 5.3832072,12.491727 5.175455,12.071286 5.0010887,11.603365 4.8608552,11.10222 Z" />
  <path d="M 4.4704877,8.5874347 H 2.6355654 c 0.050761,0.4671095 0.1618304,0.9160321 0.3244727,1.3399154 h 1.645974 C 4.5372593,9.4943085 4.4914675,9.045743 4.4704877,8.5874347 Z" />
  <path d="m 8.5874361,2.7981088 v 2.0997357 h 1.328094 C 9.5801128,3.8662934 9.0950438,3.1287521 8.5874361,2.7981088 Z" />
  <path d="m 6.0845372,4.8978445 h 1.328094 V 2.7981088 C 6.9049586,3.1287521 6.4198571,3.8662934 6.0845372,4.8978445 Z" />
  <path d="M 5.7949443,9.9273501 H 7.4126312 V 8.5874347 H 5.6460395 c 0.023351,0.4731826 0.074696,0.9212933 0.1489048,1.3399154 z" />
  <path d="M 5.646007,7.4125973 H 7.4125987 V 6.0726818 H 5.7949118 C 5.7207355,6.4912714 5.6693901,6.9393822 5.646007,7.4125973 Z" />
  <path d="M 8.5874361,6.0726818 V 7.4125973 H 10.354028 C 10.33058,6.9393822 10.279137,6.4912714 10.205058,6.0726818 Z" />
  <path d="m 8.5874361,9.9273501 h 1.6176869 c 0.07408,-0.4185247 0.125522,-0.8666679 0.14897,-1.3399154 H 8.5875011 Z" />
  <path d="M 7.4125987,13.201923 V 11.10222 H 6.0845372 c 0.3353199,1.031519 0.8204214,1.76906 1.3280615,2.099703 z" />
  <path d="M 8.5874361,13.201923 C 9.0950438,12.871345 9.5801128,12.133804 9.9155301,11.10222 H 8.5874361 Z" />
</svg>
