<?xml version="1.0" encoding="UTF-8"?><!DOCTYPE svg PUBLIC "-//W3C//DTD SVG 1.1//EN" "http://www.w3.org/Graphics/SVG/1.1/DTD/svg11.dtd"><svg xmlns="http://www.w3.org/2000/svg" xmlns:xlink="http://www.w3.org/1999/xlink"><symbol viewBox="0, 0, 16, 16" id="email-icon"><title>Email Icon</title><desc>Email icon image</desc><path d="M.251 5.838v6.867q0 .571.406.977.407.407.978.407h12.73q.571 0 .978-.407.406-.406.406-.977V5.838q-.38.424-.873.752-3.131 2.128-4.299 2.984-.493.363-.8.567-.307.203-.817.415-.51.212-.951.212h-.018q-.441 0-.951-.212t-.817-.415q-.307-.204-.8-.567Q3.952 8.51 1.116 6.59q-.493-.337-.865-.752zm0-2.543q0 .683.424 1.306.423.623 1.055 1.064 3.252 2.257 4.047 2.811.087.06.368.263.281.204.467.329.186.126.45.281.263.156.497.234.233.078.432.078h.018q.199 0 .432-.078.234-.078.497-.234.264-.155.45-.281.186-.125.467-.329.281-.203.368-.263.787-.554 2.266-1.579t1.773-1.232q.536-.363 1.012-.999.475-.636.475-1.181 0-.674-.359-1.124-.359-.45-1.025-.45H1.635q-.563 0-.973.407-.411.406-.411.977z"/></symbol><symbol viewBox="0 0 16 16" id="github-icon"><title>GitHub Logo</title><desc>GitHub logo image</desc><path d="M8 0a8 8 0 0 0-8 8 8 8 0 0 0 5.47 7.59c.4.075.547-.172.547-.385 0-.19-.007-.693-.01-1.36-2.226.483-2.695-1.073-2.695-1.073-.364-.924-.89-1.17-.89-1.17-.725-.496.056-.486.056-.486.803.056 1.225.824 1.225.824.714 1.223 1.873.87 2.33.665.072-.517.278-.87.507-1.07-1.777-.2-3.644-.888-3.644-3.953 0-.873.31-1.587.823-2.147-.083-.202-.358-1.015.077-2.117 0 0 .672-.215 2.2.82a7.68 7.68 0 0 1 2.003-.27c.68.004 1.364.092 2.003.27 1.527-1.035 2.198-.82 2.198-.82.437 1.102.163 1.915.08 2.117.513.56.823 1.274.823 2.147 0 3.073-1.87 3.75-3.653 3.947.287.246.543.735.543 1.48 0 1.07-.01 1.933-.01 2.195 0 .215.144.463.55.385A8 8 0 0 0 8 0"/></symbol><symbol viewBox="0, 0, 16, 16" id="home-icon"><title>Home Icon</title><desc>Home icon image</desc><path d="M8 4.204L2.294 8.908a.135.135 0 0 1-.005.03.136.136 0 0 0-.005.03v4.763a.61.61 0 0 0 .188.447.611.611 0 0 0 .447.188h3.81v-3.81H9.27v3.81h3.811a.61.61 0 0 0 .447-.188.61.61 0 0 0 .189-.447V8.967a.14.14 0 0 0-.01-.059z"/><path d="M15.89 7.836L13.716 6.03V1.98a.309.309 0 0 0-.09-.227.308.308 0 0 0-.227-.09h-1.906a.31.31 0 0 0-.228.09.31.31 0 0 0-.09.228v1.935l-2.42-2.024A1.158 1.158 0 0 0 8 1.634c-.29 0-.542.086-.754.258L.11 7.836a.288.288 0 0 0-.109.214.321.321 0 0 0 .07.233l.615.734c.053.06.122.096.208.11a.369.369 0 0 0 .239-.07L8 3.331l6.868 5.726c.053.046.122.07.208.07h.03a.339.339 0 0 0 .208-.11l.616-.734a.321.321 0 0 0 .069-.234.29.29 0 0 0-.11-.213z"/></symbol><symbol viewBox="0 0 16 16" id="linkedin-icon"><title>LinkedIn Logo</title><desc>LinkedIn logo image</desc><path d="M13.632 13.635h-2.37V9.922c0-.886-.018-2.025-1.234-2.025-1.235 0-1.424.964-1.424 1.96v3.778h-2.37V6H8.51v1.04h.03c.318-.6 1.092-1.233 2.247-1.233 2.4 0 2.845 1.58 2.845 3.637v4.188zM3.558 4.955a1.376 1.376 0 1 1-.001-2.751 1.376 1.376 0 0 1 .001 2.751zm1.188 8.68H2.37V6h2.376v7.635zM14.816 0H1.18C.528 0 0 .516 0 1.153v13.694C0 15.484.528 16 1.18 16h13.635c.652 0 1.185-.516 1.185-1.153V1.153C16 .516 15.467 0 14.815 0z"/></symbol><symbol viewBox="0, 0, 100, 100" id="logo"><title>Logo</title><desc>logo image</desc><style>path{fill:#325082}</style><path d="M94.594 27.448C98.353 34.361 99.803 42.213 100 50c0 27.614-22.386 50-50 50-14.43.008-26.581-5.951-36.63-16h16.156l.318-.032.319.032a5.728 5.728 0 0 0 5.724-5.724V54.49h28.226v23.786A5.728 5.728 0 0 0 69.837 84a5.728 5.728 0 0 0 5.725-5.724V27.448h19.032z"/><path d="M50 0c14.43-.008 26.581 5.951 36.63 16H70.5l-.332.033-.331-.033a5.728 5.728 0 0 0-5.724 5.724v22.305H35.887V21.724A5.728 5.728 0 0 0 30.163 16a5.728 5.728 0 0 0-5.725 5.724v50.827H5.405C1.647 65.639.197 57.787 0 50 0 22.386 22.386 0 50 0z"/></symbol><symbol viewBox="0, 0, 16, 16" id="phone-icon"><title>Phone Icon</title><desc>Phone icon image</desc><path d="M15.992 12.627a.774.774 0 0 1-.237.678l-2.253 2.237c-.101.113-.234.21-.398.288-.163.08-.324.13-.482.153l-.102.009c-.056.005-.13.008-.22.008-.215 0-.562-.037-1.042-.11-.48-.074-1.067-.255-1.761-.543-.695-.288-1.482-.72-2.363-1.296-.881-.576-1.818-1.367-2.812-2.373-.79-.78-1.445-1.526-1.965-2.237-.52-.712-.937-1.37-1.253-1.975a10.639 10.639 0 0 1-.712-1.644 8.727 8.727 0 0 1-.321-1.271 4.2 4.2 0 0 1-.068-.84c.011-.203.017-.316.017-.338.022-.158.073-.32.152-.483A1.27 1.27 0 0 1 .46 2.49L2.713.237A.746.746 0 0 1 3.255 0c.147 0 .277.042.39.127.112.085.208.19.287.314l1.813 3.44c.101.181.13.379.085.594a1.057 1.057 0 0 1-.288.542l-.83.83a.283.283 0 0 0-.06.11.419.419 0 0 0-.025.128c.045.237.147.508.305.813.135.271.344.602.627.992.282.39.683.839 1.202 1.347.508.52.96.924 1.355 1.212.395.288.726.5.991.636.265.135.469.217.61.245l.211.043c.023 0 .06-.009.11-.026a.283.283 0 0 0 .11-.059l.966-.983c.204-.18.44-.271.712-.271.192 0 .344.034.457.101h.017l3.269 1.933c.237.147.378.333.423.56z"/></symbol><symbol viewBox="0, 0, 16, 16" id="resume-icon"><title>Resume Icon</title><desc>Resume icon image</desc><path d="M13.537 0c.53 0 .963.516.963 1.153v13.694c0 .637-.433 1.153-.963 1.153H2.459c-.53 0-.959-.516-.959-1.153V1.153C1.5.516 1.929 0 2.459 0h11.078zm-1.404 12.318H3.867v.79h8.266v-.79zm0-1.63H3.867v.789h8.266v-.789zm0-1.631H3.867v.79h8.266v-.79zM9.105 5.413H6.968c-.71.005-1.335 1.286-1.333 2.071h4.803c.003-.785-.623-2.066-1.333-2.071zM8.037 2.891c-.561.003-1.012.498-1.01 1.109-.002.615.449 1.111 1.01 1.109.561.002 1.012-.494 1.009-1.109.003-.611-.448-1.106-1.009-1.109z"/></symbol><symbol viewBox="0, 0, 16, 16" id="webpage-icon"><title>Webpage Icon</title><desc>Webpage icon image</desc><path d="M8 0a8 8 0 1 0 0 16A8 8 0 0 0 8 0zm0 14.572A6.58 6.58 0 0 1 1.428 8 6.58 6.58 0 0 1 8 1.428 6.58 6.58 0 0 1 14.572 8 6.58 6.58 0 0 1 8 14.572z"/><path d="M4.606 6.073H2.96a5.353 5.353 0 0 0-.324 1.34H4.47c.021-.459.067-.907.136-1.34zM3.588 4.898H4.86c.14-.501.314-.97.522-1.39.054-.11.111-.214.169-.315-.785.401-1.46.989-1.964 1.705zM11.394 9.927h1.646c.163-.424.274-.872.324-1.34H11.53c-.021.459-.067.907-.136 1.34zM11.53 7.413h1.834a5.348 5.348 0 0 0-.324-1.34h-1.646c.069.433.115.881.136 1.34zM10.617 12.492c-.054.11-.111.214-.169.315a5.432 5.432 0 0 0 1.964-1.705H11.14c-.14.501-.314.97-.522 1.39zM11.14 4.898h1.272a5.433 5.433 0 0 0-1.964-1.705c.058.101.115.206.169.315.208.42.382.889.522 1.39zM4.86 11.102H3.589a5.432 5.432 0 0 0 1.964 1.705 6.165 6.165 0 0 1-.169-.315 8.03 8.03 0 0 1-.522-1.39zM4.47 8.587H2.636c.05.468.161.916.324 1.34h1.646a12.082 12.082 0 0 1-.136-1.34zM8.587 2.798v2.1h1.329c-.336-1.032-.821-1.77-1.329-2.1zM6.085 4.898h1.328v-2.1c-.508.33-.993 1.068-1.328 2.1zM5.795 9.927h1.618v-1.34H5.646c.023.474.075.922.149 1.34zM5.646 7.413h1.767v-1.34H5.795c-.074.418-.126.866-.149 1.34zM8.587 6.073v1.34h1.767a10.753 10.753 0 0 0-.149-1.34zM8.587 9.927h1.618c.074-.418.126-.866.15-1.34H8.587zM7.413 13.202v-2.1H6.085c.335 1.032.82 1.77 1.328 2.1zM8.587 13.202c.508-.33.993-1.068 1.329-2.1H8.587z"/></symbol></svg>